# xmcd CD database file
#
# Track frame offsets:
#	150
#	32010
#	47170
#	65820
#	83947
#	103347
#	112352
#	130545
#	144277
#	156747
#
# Disc length: 2294 seconds
#
# Revision: 8
# Processed by: cddbd v1.5.2PL0 Copyright (c) Steve Scherf et al.
# Submitted via: CDex 1.70beta2
#
DISCID=9608f40a
DTITLE=Sex Gang Children - Dieche
DYEAR=1983
DGENRE=Batcave
TTITLE0=Dieche (12" mix)
TTITLE1=Salvation
TTITLE2=Mongolia
TTITLE3=Time of Our Lives
TTITLE4=Beasts
TTITLE5=Cannibal Queen
TTITLE6=Who on Earth Can That Be?
TTITLE7=Sense of Elation
TTITLE8=Into the Abyss
TTITLE9=People with Dirty Faces
EXTD=YEAR: 1983
EXTT0=
EXTT1=
EXTT2=
EXTT3=
EXTT4=
EXTT5=
EXTT6=
EXTT7=
EXTT8=
EXTT9=
PLAYORDER=
